<?xml version="1.0" encoding="iso-8859-1"?>
<!-- Generator: Adobe Illustrator 19.0.0, SVG Export Plug-In . SVG Version: 6.00 Build 0)  -->
<svg xmlns="http://www.w3.org/2000/svg" xmlns:xlink="http://www.w3.org/1999/xlink" version="1.1" id="Layer_1" x="0px" y="0px" viewBox="0 0 415.957 415.957" style="enable-background:new 0 0 415.957 415.957;" xml:space="preserve" width="512" height="512">
<g>
	<polygon style="fill:#F7B239;" points="378.812,148.966 378.812,407.246 312.302,407.246 139.042,407.246 72.532,407.246    72.532,148.966 89.632,136.856 102.341,127.856 154.282,91.086 166.201,82.646 225.671,40.536 285.141,82.646 297.062,91.086    349.002,127.856 361.711,136.856  "/>
	<g>
		<rect x="312.302" y="356.926" style="fill:#E5A030;" width="66.51" height="9"/>
		<rect x="72.532" y="356.926" style="fill:#E5A030;" width="66.51" height="9"/>
		<rect x="312.302" y="311.116" style="fill:#E5A030;" width="66.51" height="9"/>
		<rect x="72.532" y="311.116" style="fill:#E5A030;" width="66.51" height="9"/>
		<path style="fill:#E5A030;" d="M378.812,265.296v9h-68.71c-0.71-3.07-1.58-6.07-2.6-9H378.812z"/>
		<path style="fill:#E5A030;" d="M143.841,265.296c-1.02,2.93-1.89,5.93-2.6,9h-68.71v-9H143.841z"/>
		<path style="fill:#E5A030;" d="M378.812,219.476v9h-96.23c-3.84-3.35-7.97-6.36-12.36-9H378.812z"/>
		<path style="fill:#E5A030;" d="M181.122,219.476c-4.39,2.64-8.52,5.65-12.36,9h-96.23v-9H181.122z"/>
		<rect x="72.532" y="173.666" style="fill:#E5A030;" width="306.28" height="9"/>
		<polygon style="fill:#E5A030;" points="361.711,136.856 89.632,136.856 102.341,127.856 349.002,127.856   "/>
		<polygon style="fill:#E5A030;" points="297.062,91.086 154.282,91.086 166.201,82.646 285.141,82.646   "/>
	</g>
	<path style="fill:#B76B2C;" d="M312.297,293.783v113.46h-173.26v-113.46c0-47.84,38.79-86.63,86.63-86.63   S312.297,245.943,312.297,293.783z"/>
	<path style="fill:#F7B239;" d="M378.807,148.963l-153.14-108.43l-153.14,108.43l-20.62,14.6l-16.53-23.34l182.03-128.88   c4.95-3.51,11.57-3.51,16.52,0l182.03,128.88l-16.53,23.34L378.807,148.963z"/>
	<polygon style="fill:#E5A030;" points="378.812,148.966 378.812,169.966 225.671,61.536 72.532,169.966 72.532,148.966    225.671,40.536  "/>
	<rect x="159.667" y="130.213" style="fill:#E5A030;" width="132" height="71"/>
	<rect x="159.667" y="119.213" style="fill:#F24125;" width="132" height="71"/>
	<path style="fill:#FFFFFF;" d="M272.894,148.553c0-8.734-7.106-15.84-15.841-15.84c-8.734,0-15.84,7.106-15.84,15.84   c0,0.296,0.028,0.587,0.044,0.88h-31.181c0.016-0.293,0.044-0.584,0.044-0.88c0-8.734-7.106-15.84-15.84-15.84   s-15.84,7.106-15.84,15.84c0,2.14,0.426,4.224,1.249,6.16c-0.822,1.936-1.249,4.02-1.249,6.16c0,8.734,7.106,15.84,15.84,15.84   s15.84-7.106,15.84-15.84c0-0.296-0.028-0.587-0.044-0.88h31.181c-0.016,0.293-0.044,0.584-0.044,0.88   c0,8.734,7.106,15.84,15.84,15.84c8.735,0,15.841-7.106,15.841-15.84c0-2.14-0.426-4.224-1.25-6.16   C272.468,152.777,272.894,150.693,272.894,148.553z"/>
	<polygon style="fill:#F24125;" points="10.548,379.327 101.118,379.327 111.667,407.243 0,407.243  "/>
</g>















</svg>
